#!OML:ASF F:\VICON\USERDATA\Patient Classification 1\PLAYGROUND\JustinFriday\JustinFriday.ASF
:FULLY-SPECIFIED
:DEGREES
3693
root 26.0611 30.4848 -9.09889 -268.718 -86.4065 -59.2113
lowerback 22.1455 3.738 1.72423
upperback 7.64174 4.71202 1.79867
thorax -3.99707 2.06232 -0.205344
lowerneck 15.0807 4.9551 3.92004
upperneck -33.1031 4.15739 -11.7035
head -13.2107 2.69257 -5.92805
rclavicle 1.35174e-014 1.90833e-014
rhumerus -18.2585 14.5628 -81.0542
rradius 60.9793
rwrist 27.1905
rhand -43.8431 0.163222
rfingers 7.12502
rthumb -16.6701 -29.141
lclavicle 1.35174e-014 1.90833e-014
lhumerus -11.6017 -32.9638 87.3243
lradius 58.694
lwrist -35.4801
lhand -23.3072 -26.4959
lfingers 7.12502
lthumb 3.14646 3.46064
rfemur -21.4607 0.784715 25.2688
rtibia 32.2884
rfoot -37.4241 -4.32419
rtoes 7.31717
lfemur -24.1448 6.43187 -18.3634
ltibia 33.5436
lfoot -38.9536 -6.2856
ltoes 2.46545
3694
root 26.0505 30.4541 -9.10272 -264.86 -86.8844 -63.3996
lowerback 22.2902 3.93568 1.34337
upperback 7.79463 4.86215 1.65394
thorax -3.92246 2.12952 -0.185333
lowerneck 15.0455 4.92091 3.90757
upperneck -33.095 4.07083 -11.7905
head -13.2071 2.66703 -5.94736
rclavicle 2.38542e-015 8.74653e-015
rhumerus -18.2978 15.344 -80.1152
rradius 61.6077
rwrist 25.993
rhand -43.591 0.089211
rfingers 7.12502
rthumb -16.4275 -29.2352
lclavicle 2.38542e-015 8.74653e-015
lhumerus -11.2499 -32.5487 88.068
lradius 58.0592
lwrist -36.646
lhand -23.1576 -26.4227
lfingers 7.12502
lthumb 3.29091 3.53168
rfemur -20.9023 0.898533 24.7585
rtibia 32.0409
rfoot -37.6185 -4.30925
rtoes 6.99322
lfemur -24.1508 12.5359 -19.5146
ltibia 33.6346
lfoot -38.4132 -13.3031
ltoes 5.24408
3695
root 26.0414 30.4153 -9.09911 -263.178 -86.3239 -64.9764
lowerback 21.9326 3.97024 1.97016
upperback 7.86812 5.02858 1.80372
thorax -3.61848 2.21773 -0.392998
lowerneck 15.195 4.83343 3.64565
upperneck -33.4005 3.88084 -11.6408
head -13.4089 2.58687 -5.85019
rclavicle 1.66979e-014 -1.90833e-014
rhumerus -18.3849 15.2743 -80.0806
rradius 61.8782
rwrist 26.0343
rhand -43.5587 -0.215206
rfingers 7.12502
rthumb -16.3964 -29.5422
lclavicle 1.66979e-014 -1.90833e-014
lhumerus -11.1641 -32.7783 87.9676
lradius 58.2233
lwrist -36.5524
lhand -23.0957 -26.5229
lfingers 7.12502
lthumb 3.35064 3.43054
rfemur -20.8295 0.91895 25.3837
rtibia 31.8474
rfoot -37.7534 -4.80642
rtoes 5.63254
lfemur -25.1546 20.8551 -19.9658
ltibia 33.9603
lfoot -36.1106 -24.3544
ltoes 11.8299
3696
root 26.0155 30.3982 -9.08522 -260.28 -85.2771 -67.7353
lowerback 21.4735 3.97282 3.03341
upperback 7.90327 5.23605 2.05613
thorax -3.26768 2.33173 -0.736525
lowerneck 15.8837 4.7179 3.18916
upperneck -34.2522 3.62019 -11.2924
head -13.9967 2.46708 -5.70143
rclavicle 8.42847e-014 -1.03368e-014
rhumerus -18.3143 15.1857 -80.122
rradius 61.6831
rwrist 26.1667
rhand -43.8545 -0.435456
rfingers 7.12502
rthumb -16.6812 -29.7387
lclavicle 8.42847e-014 -1.03368e-014
lhumerus -11.221 -32.9554 87.9085
lradius 58.4115
lwrist -36.1957
lhand -23.1274 -26.6935
lfingers 7.12502
lthumb 3.32008 3.26035
rfemur -20.737 0.773868 26.5179
rtibia 31.6846
rfoot -37.8522 -4.95579
rtoes 4.47898
lfemur -24.982 19.2826 -18.5729
ltibia 34.1161
lfoot -37.4155 -21.547
ltoes 9.68398
3697
root 25.9991 30.3982 -9.08722 -259.077 -85.4237 -69.0666
lowerback 21.5098 3.97367 2.67171
upperback 7.9166 5.1708 2.16186
thorax -3.3186 2.29226 -0.409805
lowerneck 15.4006 4.9483 3.38697
upperneck -33.6075 3.88637 -11.848
head -13.5485 2.64912 -5.91954
rclavicle -1.35174e-014 -2.14687e-014
rhumerus -18.1314 16.6321 -79.0158
rradius 61.8859
rwrist 24.6806
rhand -44.095 -0.72379
rfingers 7.12502
rthumb -16.9127 -30.0074
lclavicle -1.35174e-014 -2.14687e-014
lhumerus -11.04 -31.753 89.0998
lradius 57.4023
lwrist -37.29
lhand -23.3938 -26.8752
lfingers 7.12502
lthumb 3.06277 3.08255
rfemur -20.5064 0.816463 26.3559
rtibia 31.6651
rfoot -37.973 -5.13267
rtoes 4.16857
lfemur -23.6581 7.54875 -17.2718
ltibia 34.1665
lfoot -40.5476 -6.72219
ltoes 2.36137
3698
root 26.0025 30.3867 -9.10586 -262.934 -86.5363 -65.3792
lowerback 21.7898 3.9465 1.50499
upperback 7.91751 4.90884 1.97223
thorax -3.55214 2.15318 0.0850474
lowerneck 15.2273 5.03627 3.37232
upperneck -33.3663 4.00607 -11.9265
head -13.3899 2.71968 -5.93463
rclavicle -3.65764e-014 1.03368e-014
rhumerus -18.2688 16.9419 -79.0658
rradius 62.1514
rwrist 24.5301
rhand -44.2484 -0.876591
rfingers 7.12502
rthumb -17.0603 -30.1475
lclavicle -3.65764e-014 1.03368e-014
lhumerus -11.124 -31.7567 89.0035
lradius 57.4992
lwrist -37.1295
lhand -23.6007 -26.9854
lfingers 7.12502
lthumb 2.86301 2.97509
rfemur -20.3328 0.94229 25.2055
rtibia 31.6624
rfoot -38.147 -5.53169
rtoes 4.46281
lfemur -23.32 6.49957 -18.338
ltibia 33.8466
lfoot -40.6582 -6.4516
ltoes 2.43492
